<mxfile host="app.diagrams.net" agent="Mozilla/5.0 (Windows NT 10.0; Win64; x64) AppleWebKit/537.36 (KHTML, like Gecko) Chrome/139.0.0.0 Safari/537.36" version="28.2.0">
  <diagram name="WordPress AWS" id="C60rbqC7dP8JZodKeA0a">
    <mxGraphModel dx="2064" dy="713" grid="1" gridSize="10" guides="1" tooltips="1" connect="1" arrows="1" fold="1" page="1" pageScale="1" pageWidth="827" pageHeight="1169" math="0" shadow="0">
      <root>
        <mxCell id="0" />
        <mxCell id="1" parent="0" />
        <mxCell id="CFeZ0WPQ4spNyl666lTh-9" style="edgeStyle=orthogonalEdgeStyle;rounded=0;orthogonalLoop=1;jettySize=auto;html=1;" edge="1" parent="1">
          <mxGeometry relative="1" as="geometry">
            <mxPoint x="40.00000000000023" y="267.0000000000001" as="sourcePoint" />
            <mxPoint x="89.99999999999977" y="266.9999999999999" as="targetPoint" />
          </mxGeometry>
        </mxCell>
        <mxCell id="CFeZ0WPQ4spNyl666lTh-13" style="edgeStyle=orthogonalEdgeStyle;rounded=0;orthogonalLoop=1;jettySize=auto;html=1;exitX=1;exitY=0.5;exitDx=0;exitDy=0;" edge="1" parent="1" source="CFeZ0WPQ4spNyl666lTh-24">
          <mxGeometry relative="1" as="geometry">
            <mxPoint x="580" y="475" as="sourcePoint" />
            <mxPoint x="730" y="270" as="targetPoint" />
          </mxGeometry>
        </mxCell>
        <mxCell id="CFeZ0WPQ4spNyl666lTh-17" value="" style="sketch=0;outlineConnect=0;fontColor=#232F3E;gradientColor=none;fillColor=#C925D1;strokeColor=none;dashed=0;verticalLabelPosition=bottom;verticalAlign=top;align=center;html=1;fontSize=12;fontStyle=0;aspect=fixed;pointerEvents=1;shape=mxgraph.aws4.rds_instance;" vertex="1" parent="1">
          <mxGeometry x="690" y="310" width="78" height="78" as="geometry" />
        </mxCell>
        <mxCell id="CFeZ0WPQ4spNyl666lTh-18" value="" style="outlineConnect=0;dashed=0;verticalLabelPosition=bottom;verticalAlign=top;align=center;html=1;shape=mxgraph.aws3.efs;fillColor=#E05243;gradientColor=none;" vertex="1" parent="1">
          <mxGeometry x="680" y="133" width="76.5" height="93" as="geometry" />
        </mxCell>
        <mxCell id="CFeZ0WPQ4spNyl666lTh-43" style="edgeStyle=orthogonalEdgeStyle;rounded=0;orthogonalLoop=1;jettySize=auto;html=1;exitX=1;exitY=0.5;exitDx=0;exitDy=0;" edge="1" parent="1" source="CFeZ0WPQ4spNyl666lTh-19" target="CFeZ0WPQ4spNyl666lTh-17">
          <mxGeometry relative="1" as="geometry">
            <mxPoint x="720" y="195.3529411764706" as="targetPoint" />
          </mxGeometry>
        </mxCell>
        <mxCell id="CFeZ0WPQ4spNyl666lTh-19" value="EC2 instance contents" style="points=[[0,0],[0.25,0],[0.5,0],[0.75,0],[1,0],[1,0.25],[1,0.5],[1,0.75],[1,1],[0.75,1],[0.5,1],[0.25,1],[0,1],[0,0.75],[0,0.5],[0,0.25]];outlineConnect=0;gradientColor=none;html=1;whiteSpace=wrap;fontSize=12;fontStyle=0;container=1;pointerEvents=0;collapsible=0;recursiveResize=0;shape=mxgraph.aws4.group;grIcon=mxgraph.aws4.group_ec2_instance_contents;strokeColor=#D86613;fillColor=none;verticalAlign=top;align=left;spacingLeft=30;fontColor=#D86613;dashed=0;" vertex="1" parent="1">
          <mxGeometry x="460" y="140" width="150" height="110" as="geometry" />
        </mxCell>
        <mxCell id="CFeZ0WPQ4spNyl666lTh-25" value="" style="image;sketch=0;aspect=fixed;html=1;points=[];align=center;fontSize=12;image=img/lib/mscae/Docker.svg;" vertex="1" parent="CFeZ0WPQ4spNyl666lTh-19">
          <mxGeometry x="10" y="46" width="50" height="41" as="geometry" />
        </mxCell>
        <mxCell id="CFeZ0WPQ4spNyl666lTh-28" value="" style="dashed=0;outlineConnect=0;html=1;align=center;labelPosition=center;verticalLabelPosition=bottom;verticalAlign=top;shape=mxgraph.webicons.wordpress;fillColor=#35E2EE;gradientColor=#0E4D99" vertex="1" parent="CFeZ0WPQ4spNyl666lTh-19">
          <mxGeometry x="60" y="43" width="60" height="47" as="geometry" />
        </mxCell>
        <mxCell id="CFeZ0WPQ4spNyl666lTh-24" value="EC2 instance contents" style="points=[[0,0],[0.25,0],[0.5,0],[0.75,0],[1,0],[1,0.25],[1,0.5],[1,0.75],[1,1],[0.75,1],[0.5,1],[0.25,1],[0,1],[0,0.75],[0,0.5],[0,0.25]];outlineConnect=0;gradientColor=none;html=1;whiteSpace=wrap;fontSize=12;fontStyle=0;container=1;pointerEvents=0;collapsible=0;recursiveResize=0;shape=mxgraph.aws4.group;grIcon=mxgraph.aws4.group_ec2_instance_contents;strokeColor=#D86613;fillColor=none;verticalAlign=top;align=left;spacingLeft=30;fontColor=#D86613;dashed=0;" vertex="1" parent="1">
          <mxGeometry x="480" y="340" width="122.4" height="100" as="geometry" />
        </mxCell>
        <mxCell id="CFeZ0WPQ4spNyl666lTh-26" value="" style="image;sketch=0;aspect=fixed;html=1;points=[];align=center;fontSize=12;image=img/lib/mscae/Docker.svg;" vertex="1" parent="CFeZ0WPQ4spNyl666lTh-24">
          <mxGeometry x="10" y="49" width="50" height="41" as="geometry" />
        </mxCell>
        <mxCell id="CFeZ0WPQ4spNyl666lTh-27" value="" style="dashed=0;outlineConnect=0;html=1;align=center;labelPosition=center;verticalLabelPosition=bottom;verticalAlign=top;shape=mxgraph.webicons.wordpress;fillColor=#35E2EE;gradientColor=#0E4D99" vertex="1" parent="CFeZ0WPQ4spNyl666lTh-24">
          <mxGeometry x="60" y="50" width="52.4" height="40" as="geometry" />
        </mxCell>
        <mxCell id="CFeZ0WPQ4spNyl666lTh-29" value="Auto Scaling group" style="points=[[0,0],[0.25,0],[0.5,0],[0.75,0],[1,0],[1,0.25],[1,0.5],[1,0.75],[1,1],[0.75,1],[0.5,1],[0.25,1],[0,1],[0,0.75],[0,0.5],[0,0.25]];outlineConnect=0;gradientColor=none;html=1;whiteSpace=wrap;fontSize=12;fontStyle=0;container=1;pointerEvents=0;collapsible=0;recursiveResize=0;shape=mxgraph.aws4.groupCenter;grIcon=mxgraph.aws4.group_auto_scaling_group;grStroke=1;strokeColor=#D86613;fillColor=none;verticalAlign=top;align=center;fontColor=#D86613;dashed=1;spacingTop=25;" vertex="1" parent="1">
          <mxGeometry x="430" y="80" width="210" height="400" as="geometry" />
        </mxCell>
        <mxCell id="CFeZ0WPQ4spNyl666lTh-31" value="" style="sketch=0;outlineConnect=0;fontColor=#232F3E;gradientColor=none;fillColor=#8C4FFF;strokeColor=none;dashed=0;verticalLabelPosition=bottom;verticalAlign=top;align=center;html=1;fontSize=12;fontStyle=0;aspect=fixed;pointerEvents=1;shape=mxgraph.aws4.application_load_balancer;" vertex="1" parent="1">
          <mxGeometry x="100" y="226" width="78" height="78" as="geometry" />
        </mxCell>
        <mxCell id="CFeZ0WPQ4spNyl666lTh-32" value="" style="outlineConnect=0;dashed=0;verticalLabelPosition=bottom;verticalAlign=top;align=center;html=1;shape=mxgraph.aws3.internet_gateway;fillColor=#F58534;gradientColor=none;" vertex="1" parent="1">
          <mxGeometry x="-40" y="232" width="79" height="72" as="geometry" />
        </mxCell>
        <mxCell id="CFeZ0WPQ4spNyl666lTh-36" style="edgeStyle=orthogonalEdgeStyle;rounded=0;orthogonalLoop=1;jettySize=auto;html=1;exitX=1;exitY=0.5;exitDx=0;exitDy=0;" edge="1" parent="1" source="CFeZ0WPQ4spNyl666lTh-34" target="CFeZ0WPQ4spNyl666lTh-29">
          <mxGeometry relative="1" as="geometry">
            <mxPoint x="380" y="213" as="targetPoint" />
            <Array as="points">
              <mxPoint x="400" y="213" />
              <mxPoint x="400" y="280" />
            </Array>
          </mxGeometry>
        </mxCell>
        <mxCell id="CFeZ0WPQ4spNyl666lTh-45" style="edgeStyle=orthogonalEdgeStyle;rounded=0;orthogonalLoop=1;jettySize=auto;html=1;exitX=0;exitY=0.5;exitDx=0;exitDy=0;" edge="1" parent="1" source="CFeZ0WPQ4spNyl666lTh-34" target="CFeZ0WPQ4spNyl666lTh-31">
          <mxGeometry relative="1" as="geometry" />
        </mxCell>
        <mxCell id="CFeZ0WPQ4spNyl666lTh-34" value="EC2 instance contents" style="points=[[0,0],[0.25,0],[0.5,0],[0.75,0],[1,0],[1,0.25],[1,0.5],[1,0.75],[1,1],[0.75,1],[0.5,1],[0.25,1],[0,1],[0,0.75],[0,0.5],[0,0.25]];outlineConnect=0;gradientColor=none;html=1;whiteSpace=wrap;fontSize=12;fontStyle=0;container=1;pointerEvents=0;collapsible=0;recursiveResize=0;shape=mxgraph.aws4.group;grIcon=mxgraph.aws4.group_ec2_instance_contents;strokeColor=#D86613;fillColor=none;verticalAlign=top;align=left;spacingLeft=30;fontColor=#D86613;dashed=0;" vertex="1" parent="1">
          <mxGeometry x="250" y="170" width="110" height="87" as="geometry" />
        </mxCell>
        <mxCell id="CFeZ0WPQ4spNyl666lTh-40" style="edgeStyle=orthogonalEdgeStyle;rounded=0;orthogonalLoop=1;jettySize=auto;html=1;exitX=1;exitY=0.5;exitDx=0;exitDy=0;" edge="1" parent="1" source="CFeZ0WPQ4spNyl666lTh-35" target="CFeZ0WPQ4spNyl666lTh-29">
          <mxGeometry relative="1" as="geometry">
            <Array as="points">
              <mxPoint x="400" y="343" />
              <mxPoint x="400" y="280" />
            </Array>
          </mxGeometry>
        </mxCell>
        <mxCell id="CFeZ0WPQ4spNyl666lTh-47" style="edgeStyle=orthogonalEdgeStyle;rounded=0;orthogonalLoop=1;jettySize=auto;html=1;exitX=0;exitY=0.5;exitDx=0;exitDy=0;" edge="1" parent="1" source="CFeZ0WPQ4spNyl666lTh-35" target="CFeZ0WPQ4spNyl666lTh-31">
          <mxGeometry relative="1" as="geometry" />
        </mxCell>
        <mxCell id="CFeZ0WPQ4spNyl666lTh-35" value="EC2 instance contents" style="points=[[0,0],[0.25,0],[0.5,0],[0.75,0],[1,0],[1,0.25],[1,0.5],[1,0.75],[1,1],[0.75,1],[0.5,1],[0.25,1],[0,1],[0,0.75],[0,0.5],[0,0.25]];outlineConnect=0;gradientColor=none;html=1;whiteSpace=wrap;fontSize=12;fontStyle=0;container=1;pointerEvents=0;collapsible=0;recursiveResize=0;shape=mxgraph.aws4.group;grIcon=mxgraph.aws4.group_ec2_instance_contents;strokeColor=#D86613;fillColor=none;verticalAlign=top;align=left;spacingLeft=30;fontColor=#D86613;dashed=0;" vertex="1" parent="1">
          <mxGeometry x="250" y="298" width="110" height="90" as="geometry" />
        </mxCell>
        <mxCell id="CFeZ0WPQ4spNyl666lTh-44" style="edgeStyle=orthogonalEdgeStyle;rounded=0;orthogonalLoop=1;jettySize=auto;html=1;exitX=0.5;exitY=1;exitDx=0;exitDy=0;" edge="1" parent="1" source="CFeZ0WPQ4spNyl666lTh-29" target="CFeZ0WPQ4spNyl666lTh-29">
          <mxGeometry relative="1" as="geometry" />
        </mxCell>
        <mxCell id="CFeZ0WPQ4spNyl666lTh-49" value="" style="edgeStyle=orthogonalEdgeStyle;rounded=0;orthogonalLoop=1;jettySize=auto;html=1;" edge="1" parent="1" source="CFeZ0WPQ4spNyl666lTh-48" target="CFeZ0WPQ4spNyl666lTh-32">
          <mxGeometry relative="1" as="geometry" />
        </mxCell>
        <mxCell id="CFeZ0WPQ4spNyl666lTh-48" value="" style="image;aspect=fixed;perimeter=ellipsePerimeter;html=1;align=center;shadow=0;dashed=0;spacingTop=3;image=img/lib/active_directory/user_accounts.svg;" vertex="1" parent="1">
          <mxGeometry x="-240" y="220.29999999999998" width="92.16" height="89.4" as="geometry" />
        </mxCell>
        <mxCell id="CFeZ0WPQ4spNyl666lTh-50" value="VPC" style="points=[[0,0],[0.25,0],[0.5,0],[0.75,0],[1,0],[1,0.25],[1,0.5],[1,0.75],[1,1],[0.75,1],[0.5,1],[0.25,1],[0,1],[0,0.75],[0,0.5],[0,0.25]];outlineConnect=0;gradientColor=none;html=1;whiteSpace=wrap;fontSize=12;fontStyle=0;container=1;pointerEvents=0;collapsible=0;recursiveResize=0;shape=mxgraph.aws4.group;grIcon=mxgraph.aws4.group_vpc2;strokeColor=#8C4FFF;fillColor=none;verticalAlign=top;align=left;spacingLeft=30;fontColor=#AAB7B8;dashed=0;" vertex="1" parent="1">
          <mxGeometry x="-10" y="40" width="850" height="470" as="geometry" />
        </mxCell>
      </root>
    </mxGraphModel>
  </diagram>
</mxfile>
